%
M48
M72
T01C0.0236
T02C0.0240
T03C0.0276
T04C0.0320
T05C0.0394
T06C0.0400
%
T01
X16600Y16350
T02
X23050Y12460
T03
X16212Y12970
X15740Y13285
X16212Y13600
X15740Y13915
X16212Y14230
T04
X14100Y8600
X17100Y8600
X21150Y11600
X23050Y11600
X25600Y15100
X26600Y15100
X26600Y16600
X25600Y16600
T05
X14224Y15037
X14224Y12163
T06
X19100Y7600
X20100Y7600
X21100Y7600
X22100Y7600
X23100Y7600
X24100Y7600
X25100Y7600
X26100Y7600
X15490Y18320
X13710Y18320
X13710Y20880
X15490Y20880
X20100Y20600
X21100Y20600
X22100Y20600
X23100Y20600
X25100Y20600
X26100Y20600
M30
